<svg viewBox="0 0 48 48" xmlns="http://www.w3.org/2000/svg" fill-rule="evenodd" clip-rule="evenodd" stroke-linejoin="round" stroke-miterlimit="2"><path d="M40.103 4.001l.102.004.103.006.1.01.1.011.101.014.099.017.098.019.097.02.096.024.095.026.095.028.093.03.093.033.091.035.09.037.09.038.088.041.086.044.086.045.084.047.084.05.081.05.081.054.079.054.078.057.076.059.074.06.074.062.071.064.071.065.069.067.067.07.065.07.065.071.061.073.06.075.059.076.056.078.056.08.053.08.05.082.05.082.047.085.046.085.042.088.041.087.04.09.037.09.034.091.032.092.031.094.028.095.026.095.024.097.02.096.02.099.016.098.014.1.011.1.01.101.006.103.004.102L44 8v32.104l-.005.102-.007.102-.009.1-.01.101-.015.1-.017.1-.018.097-.021.097-.024.097-.026.094-.028.095-.03.093-.033.093-.034.091-.037.09-.04.09-.04.088-.043.086-.046.086-.047.084-.05.084-.05.081-.053.08-.056.08-.056.078-.058.076-.06.074-.062.074-.065.072-.065.07-.067.07-.069.066-.07.066-.072.063-.074.063-.074.06-.076.058-.078.057-.079.055-.08.053-.082.05-.084.05-.084.047-.086.045-.086.043-.089.042-.088.039-.09.036-.092.035-.093.032-.093.032-.095.028-.095.025-.096.024-.097.021-.098.018-.099.017-.1.015-.1.01-.101.01-.103.006-.102.004L40 44H8l-.104-.002-.102-.004-.101-.006-.102-.01-.1-.01-.1-.015-.1-.017-.097-.018-.097-.02-.096-.025-.096-.025-.094-.028-.093-.032-.092-.032-.092-.035-.09-.036-.09-.04-.087-.04-.087-.044-.086-.045-.084-.047-.083-.05-.082-.05-.08-.053-.08-.055-.078-.057-.076-.058-.075-.06-.073-.063-.072-.063-.07-.066-.07-.067-.066-.068-.065-.07-.064-.073-.062-.074-.06-.074-.06-.076-.056-.078-.054-.08-.053-.08-.052-.081-.049-.084-.047-.084-.045-.086-.043-.086-.042-.089-.038-.088-.037-.09-.035-.092-.033-.093-.03-.093-.028-.095L4.126 41l-.023-.097-.022-.097-.019-.098-.016-.1-.014-.099-.012-.1-.009-.101-.006-.102-.004-.102V7.897l.004-.102.006-.103.01-.1.011-.101.014-.1.016-.098.019-.099.022-.096L4.126 7l.026-.095.028-.095.03-.094.033-.092.035-.092.037-.09.038-.089.042-.087.043-.088.045-.085.047-.085.05-.082.05-.082.054-.08.054-.08.057-.078.059-.076.06-.075.062-.073.064-.071.065-.07.067-.07.068-.067.071-.065.072-.064.073-.062.075-.06.076-.06.078-.056.08-.054.08-.053.082-.052.083-.049.084-.047.086-.045.087-.044.087-.04.09-.04.09-.036.092-.035.092-.033.093-.03.094-.028.096-.026.096-.023.097-.021.098-.02.1-.016.099-.014.1-.012.102-.009.101-.006.102-.004h32.207zm-32.09 2h-.066l-.052.001-.05.004-.051.005-.05.006-.05.007-.05.008-.049.009-.048.01-.047.012-.048.013-.047.014-.046.015-.045.016-.046.017-.045.018-.044.02-.044.02-.043.022-.043.023-.042.023-.041.025-.041.025-.04.026-.04.029-.04.028-.038.029-.038.03-.037.031-.036.032-.035.034-.034.034-.034.034-.033.035-.033.036-.03.038-.031.037-.03.038-.028.04-.028.04-.026.04-.025.04-.025.042-.023.042-.023.043-.022.043-.02.044-.02.044-.018.046-.018.045-.015.045-.015.046-.014.048-.013.047-.012.047-.01.048-.01.05-.008.049-.007.05-.006.05-.004.05-.003.052-.002.051v32.105l.002.053.003.051.004.05.006.05.007.05.008.05.01.048.01.049.012.048.013.047.014.046.015.047.015.046.018.045.018.045.02.044.02.044.022.043.023.043.023.042.025.042.025.04.026.041.028.04.029.039.029.038.03.037.031.038.033.036.033.035.034.035.034.033.035.033.036.033.037.03.038.031.039.03.038.028.04.027.04.027.042.026.041.024.042.024.043.022.043.021.044.021.044.02.045.018.046.018.045.016.046.015.047.013.048.013.047.012.048.01.05.01.049.008.05.007.05.005.05.005.051.003.052.002.066.001h32.039l.052-.003.052-.003.05-.005.051-.005.05-.007.049-.009.048-.009.05-.01.047-.012.047-.013.046-.013.047-.015.046-.016.044-.018.046-.018.044-.02.044-.02.043-.022.043-.022.042-.024.042-.024.04-.026.041-.027.04-.027.039-.029.038-.029.037-.03.037-.031.037-.033.035-.033.035-.033.033-.035.033-.035.032-.036.032-.038.03-.037.03-.038.027-.04.028-.039.027-.04.025-.041.025-.042.024-.042.023-.043.02-.043.021-.044.02-.044.018-.045.017-.045.016-.046.015-.047.014-.046.013-.047.012-.048.01-.049.01-.048.007-.05.007-.05.006-.05.005-.05.003-.051.002-.053.001-.065V7.947l-.003-.05-.003-.052-.005-.051-.006-.05-.007-.05-.007-.05-.01-.049-.01-.048-.012-.047-.013-.047-.014-.048-.015-.046-.016-.045-.017-.046-.019-.045-.019-.044-.02-.044-.021-.043-.023-.043-.024-.042-.025-.041-.025-.041-.027-.04-.028-.04-.027-.039-.03-.04-.03-.036-.032-.038-.032-.036-.033-.035-.033-.034-.035-.034-.035-.034-.037-.032-.037-.031-.037-.03-.038-.03-.04-.027-.039-.029-.04-.026-.041-.025-.042-.025-.042-.023-.043-.023-.043-.021-.044-.02-.044-.02-.046-.019-.044-.017-.046-.016-.047-.015-.046-.014-.047-.013-.048-.011-.049-.011-.048-.01-.05-.007-.049-.007-.05-.006-.051-.005-.052-.004L40.052 6H8.013z" fill="gray"/><path d="M24.849 9.129h.972l.936.072.684.036.684.108.648.108.612.144.612.144.468.144.468.18.468.216.432.252.432.288.396.324.36.324.36.36.36.396.288.396.288.432.288.468.252.432.216.468.18.504.18.468.108.504.144.504.072.54.036.504.036.54v1.152l-.036.108v.288l-.036.108v.108l-.036.072v.216l-.036.072v.108l-.036.108v.108l-.036.072-.036.108v.072l-.036.108-.036.108v.072l-.036.108-.036.072-.036.108-.036.108v.072l-.036.108-.036.072-.036.108-.036.072-.036.108-.036.072-.036.108-.036.072-.036.108-.072.072-.036.072-.036.108-.036.072-.072.108-.036.072-.036.072-.072.108-.036.072-.036.072-.072.072-.036.108-.072.072-.036.072-.072.072-.036.072-.072.108-.072.072-.036.072-.072.072-.072.072-.036.072-.072.072-.072.072-.072.072-.036.072-.072.072-.072.072-.072.072-.072.072-.072.072-.072.072-.072.036-.072.072-.072.072-.072.072-.072.036-.072.072-.072.072-.072.036-.072.072-.072.072-.072.036-.072.072-.072.036-.108.072-.072.072.396.54.36.54.324.54.324.612.288.648.252.648 2.592 7.02.072.252.036.288V37.173l-.036.144-.036.144-.036.144-.072.108-.072.144-.072.108-.072.108-.072.108-.108.108-.108.108-.108.108-.108.072-.144.072-.108.072-.144.036-.144.036-.108.036-.144.036h-.144l-.144.036h-3.708l-.144-.036h-.108l-.144-.036-.144-.036-.108-.036-.144-.036-.108-.072-.144-.072-.108-.072-.108-.072-.108-.072-.072-.108-.108-.108-.072-.108-.072-.108-.072-.144-.072-.108-.036-.144-2.412-6.84-.036-.108-.036-.072-.036-.072-.036-.072-.036-.072-.036-.072-.036-.072-.036-.072-.036-.072-.036-.072-.036-.072-.036-.072-.072-.072-.036-.072-.036-.072-.036-.036-.072-.072-.036-.072-.036-.072-.072-.036-.036-.072-.036-.072-.072-.036-.036-.072-.072-.036-.072-.072-.036-.036-.072-.072-.072-.036-.036-.072-.072-.036-.072-.072-.072-.036-.072-.036-.036-.072-.072-.036-.072-.036-.072-.036-.036-.036-.072-.036-.072-.036-.072-.036-.072-.036-.036-.036h-.072l-.072-.036-.072-.036h-.072l-.072-.036-.072-.036h-.072l-.072-.036h-.072l-.072-.036h-.144l-.072-.036h-.324l-.072-.036h-4.5v9.324l-.036.144-.036.144-.036.108-.072.144-.036.144-.072.108-.108.108-.072.108-.108.108-.108.108-.108.072-.108.108-.144.072-.108.072-.144.036-.144.036-.108.036-.144.036h-.144l-.144.036h-3.42l-.144-.036h-.144l-.144-.036-.144-.036-.108-.036-.144-.036-.144-.072-.108-.072-.108-.108-.108-.072-.108-.108-.108-.108-.072-.108-.108-.108-.072-.108-.036-.144-.072-.144-.036-.108-.036-.144-.036-.144V10.82l.036-.144.036-.108.036-.144.072-.144.036-.108.072-.144.108-.108.072-.108.108-.108.108-.108.108-.072.108-.108.108-.072.144-.036.144-.072.108-.036.144-.036.144-.036h11.88zm-11.592 1.98v25.776h3.42V25.869h6.804l.468.072.432.072.468.144.396.144.432.216.396.252.396.252.432.396.432.396.36.432.324.504.288.504.216.54.108.216 2.412 6.876h3.708l-2.592-7.02-.036-.108-.036-.108-.072-.144-.036-.108-.036-.108-.072-.108-.036-.108-.036-.108-.072-.108-.036-.108-.072-.108-.036-.108-.036-.072-.072-.108-.036-.108-.072-.072-.036-.108-.072-.108-.036-.072-.072-.108-.036-.072-.072-.108-.072-.072-.036-.072-.072-.108-.072-.072-.036-.072-.072-.108-.072-.072-.036-.072-.072-.072-.072-.072-.072-.072-.072-.072-.036-.072-.072-.072-.072-.072-.072-.036-.072-.072-.072-.072-.072-.036-.072-.072-.072-.072-.072-.036-.072-.072-.072-.036-.072-.072-.072-.036-.072-.072-.072-.036-.072-.036-.072-.036-.072-.072-.072-.036-.072-.036-.108-.036-.072-.036-.072-.036-.072-.036-.108-.036-.072-.036-.072-.036h-.072l-.108-.036v-.072l.18-.036.144-.036.18-.036.144-.036.18-.072.144-.036.072-.036h.072l.072-.036.108-.036.072-.036h.072l.072-.036.072-.036.072-.036.072-.036.072-.036h.072l.072-.036.072-.036.072-.036.072-.036.036-.036.072-.036.072-.036.072-.036.072-.036.072-.036.036-.036.072-.036.072-.036.072-.036.036-.036.072-.072.072-.036.072-.036.036-.036.072-.036.072-.072.036-.036.072-.036.036-.036.072-.072.072-.036.036-.036.072-.072.036-.036.072-.036.036-.072.072-.036.036-.072.072-.036.036-.072.036-.036.072-.072.036-.036.072-.072.036-.036.036-.072.072-.036.036-.072.036-.036.036-.072.072-.072.036-.036.036-.072.036-.072.036-.036.036-.072.036-.072.072-.036.036-.072.036-.072.036-.072.036-.036.036-.072.036-.072.036-.072v-.036l.036-.072.036-.072.036-.072.036-.072.036-.072v-.036l.036-.072.036-.072.036-.072v-.072l.036-.072.036-.072v-.072l.036-.072.036-.072v-.072l.036-.072v-.072l.036-.072v-.072l.036-.072V20l.036-.072v-.144l.036-.072v-.18l.036-.072v-.144l.036-.072v-.396l.036-.108V17.913l-.036-.144v-.288l-.036-.144v-.144l-.036-.144v-.108l-.036-.144-.036-.144-.036-.144V16.4l-.036-.144-.036-.144-.072-.108-.036-.144-.036-.144-.036-.108-.036-.144-.072-.108-.036-.144-.072-.108-.036-.144-.072-.108-.072-.108-.072-.144-.036-.108-.072-.108-.072-.144-.072-.108-.072-.108-.108-.108-.072-.108-.072-.108-.072-.108-.072-.108-.108-.108-.072-.072-.108-.108-.072-.108-.072-.072-.108-.108-.108-.072-.072-.072-.108-.108-.072-.072-.108-.072-.108-.072-.108-.072-.072-.072-.108-.036-.108-.072-.108-.072-.108-.036-.108-.072-.108-.036-.108-.072-.108-.036-.144-.036-.108-.072-.108-.036-.108-.036-.144-.036-.108-.036-.108-.036h-.144l-.144-.036-.108-.036-.144-.036-.144-.036h-.108l-.144-.036-.144-.036-.144-.036h-.144l-.144-.036h-.144l-.18-.036h-.144l-.144-.036h-.18l-.144-.036H26.433l-.18-.036H25.569l-.18-.036H13.257zm11.736 2.844l.648.036.612.036.576.108.54.108.468.18.612.288.504.324.432.432.36.468.252.54.18.612.108.468.036.504v.864l-.036.072v.288l-.036.072v.144l-.036.036v.144l-.036.072v.036l-.036.072V19.965l-.036.072v.072l-.036.036v.072l-.036.036-.036.072v.072l-.036.036v.072l-.036.036-.036.072v.036l-.036.036-.036.072-.036.036v.036l-.036.072-.036.036-.036.036-.036.072v.036l-.036.036-.036.036-.036.072-.036.036-.036.036-.036.036-.036.036-.036.036-.036.036-.036.036-.036.036-.036.036-.036.036-.072.036-.036.036-.036.036-.036.036-.036.036-.072.036-.036.036-.036.036-.036.036h-.072l-.036.036-.036.036-.072.036-.036.036h-.072l-.036.036-.072.036-.036.036h-.072l-.036.036-.072.036h-.072l-.036.036-.072.036h-.072l-.036.036-.144.036-.108.036-.144.036-.144.036-.144.036-.144.036-.144.036-.144.036h-.144l-.144.036-.18.036h-.144l-.18.036h-.18l-.144.036h-.54l-.216.036h-8.172v-8.856H24.993zm-6.336 1.98v4.86H25.137l.144-.036h.288l.144-.036h.288l.144-.036.108-.036h.108l.144-.036h.108l.108-.036.072-.036h.108l.108-.036.072-.036.108-.036h.036l.036-.036h.072l.036-.036h.036l.036-.036h.036l.036-.036h.072v-.036h.036l.036-.036h.036l.036-.036h.036v-.036h.036v-.036h.036v-.036h.036v-.036h.036V20h.036v-.036l.036-.036.036-.036v-.036h.036v-.072l.036-.036v-.036h.036V19.605h.036v-.072l.036-.036V19.389h.036v-.144l.036-.036v-.18l.036-.072v-.288l.036-.108v-.396l-.036-.108v-.252l-.036-.072v-.18l-.036-.036v-.072l-.036-.036V17.3h-.036v-.072l-.036-.036v-.072l-.036-.036v-.036h-.036v-.072h-.036v-.036l-.036-.036v-.036h-.036v-.036l-.036-.036h-.036v-.036l-.036-.036-.036-.036-.036-.036h-.036v-.036h-.036v-.036h-.036v-.036h-.072v-.036h-.036l-.036-.036h-.036l-.036-.036-.036-.036h-.036l-.036-.036h-.036l-.036-.036h-.072l-.072-.036-.072-.036-.072-.036-.108-.036h-.072l-.072-.036-.108-.036h-.072l-.108-.036h-.108l-.108-.036h-.108l-.108-.036h-.252l-.108-.036H25.245l-.144-.036h-6.444z" fill="gray"/></svg>