<?xml version="1.0" encoding="UTF-8" standalone="no"?>
<!DOCTYPE svg PUBLIC "-//W3C//DTD SVG 1.1//EN" "http://www.w3.org/Graphics/SVG/1.1/DTD/svg11.dtd">
<svg width="100%" height="100%" viewBox="0 0 48 48" version="1.1" xmlns="http://www.w3.org/2000/svg" xmlns:xlink="http://www.w3.org/1999/xlink" xml:space="preserve" xmlns:serif="http://www.serif.com/" style="fill-rule:evenodd;clip-rule:evenodd;stroke-linejoin:round;stroke-miterlimit:2;">
    <g transform="matrix(1.03898,0,0,1.05807,-0.92268,-1.24934)">
        <path d="M43.237,8.742C43.237,6.655 41.512,4.961 39.387,4.961L8.588,4.961C6.463,4.961 4.738,6.655 4.738,8.742L4.738,38.985C4.738,41.072 6.463,42.766 8.588,42.766L39.387,42.766C41.512,42.766 43.237,41.072 43.237,38.985L43.237,8.742Z" style="fill:rgb(0,62,170);"/>
        <path d="M43.237,8.742C43.237,6.655 41.512,4.961 39.387,4.961L8.588,4.961C6.463,4.961 4.738,6.655 4.738,8.742L4.738,38.985C4.738,41.072 6.463,42.766 8.588,42.766L39.387,42.766C41.512,42.766 43.237,41.072 43.237,38.985L43.237,8.742ZM8.588,8.742C8.588,8.742 39.387,8.742 39.387,8.742L39.387,38.985C39.387,38.985 8.588,38.985 8.588,38.985L8.588,8.742Z" style="fill:rgb(12,12,13);"/>
    </g>
    <g transform="matrix(0.767259,0,0,0.767259,5.94356,5.30962)">
        <text x="8px" y="40px" style="font-family:'Gadugi-Bold', 'Gadugi', sans-serif;font-weight:700;font-size:44.673px;fill:rgb(215,215,219);">R</text>
    </g>
</svg>
