<?xml version="1.0" encoding="UTF-8" standalone="no"?>
<!DOCTYPE svg PUBLIC "-//W3C//DTD SVG 1.1//EN" "http://www.w3.org/Graphics/SVG/1.1/DTD/svg11.dtd">
<svg width="100%" height="100%" viewBox="0 0 48 48" version="1.1" xmlns="http://www.w3.org/2000/svg" xmlns:xlink="http://www.w3.org/1999/xlink" xml:space="preserve" xmlns:serif="http://www.serif.com/" style="fill-rule:evenodd;clip-rule:evenodd;stroke-linejoin:round;stroke-miterlimit:2;">
    <g transform="matrix(1.03061,0,0,1.03484,0.693877,-0.137965)">
        <path d="M34.358,3.961L34.458,3.963L34.557,3.966L34.657,3.97L34.756,3.976L34.854,3.983L34.953,3.991L35.051,4L35.148,4.011L35.245,4.023L35.342,4.035L35.439,4.05L35.535,4.065L35.631,4.081L35.726,4.099L35.821,4.118L35.915,4.137L36.01,4.159L36.103,4.181L36.196,4.204L36.289,4.228L36.381,4.254L36.473,4.28L36.565,4.308L36.656,4.337L36.746,4.367L36.836,4.398L36.925,4.43L37.014,4.463L37.103,4.497L37.19,4.532L37.278,4.568L37.364,4.606L37.451,4.644L37.536,4.683L37.621,4.723L37.706,4.764L37.79,4.807L37.873,4.85L37.956,4.894L38.038,4.939L38.12,4.985L38.201,5.032L38.281,5.08L38.361,5.129L38.44,5.179L38.518,5.23L38.596,5.281L38.673,5.334L38.75,5.387L38.825,5.442L38.901,5.497L38.975,5.553L39.049,5.61L39.122,5.668L39.194,5.727L39.265,5.786L39.336,5.847L39.406,5.908L39.476,5.97L39.544,6.033L39.612,6.096L39.679,6.161L39.745,6.226L39.811,6.292L39.875,6.358L39.939,6.426L40.002,6.494L40.065,6.563L40.126,6.633L40.187,6.704L40.246,6.775L40.305,6.847L40.363,6.919L40.421,6.993L40.477,7.067L40.532,7.142L40.587,7.217L40.641,7.293L40.693,7.37L40.745,7.447L40.796,7.526L40.846,7.604L40.895,7.684L40.944,7.764L40.991,7.844L41.037,7.926L41.082,8.007L41.127,8.09L41.17,8.173L41.212,8.257L41.254,8.341L41.294,8.426L41.334,8.511L41.372,8.597L41.409,8.683L41.446,8.77L41.481,8.858L41.515,8.946L41.548,9.034L41.581,9.123L41.612,9.213L41.642,9.303L41.671,9.393L41.698,9.484L41.725,9.576L41.751,9.668L41.775,9.76L41.799,9.853L41.821,9.946L41.842,10.04L41.862,10.134L41.881,10.228L41.898,10.323L41.915,10.419L41.93,10.514L41.944,10.611L41.957,10.707L41.969,10.804L41.98,10.901L41.989,10.999L41.997,11.097L42.004,11.195L42.01,11.294L42.014,11.392L42.017,11.492L42.019,11.591L42.02,11.691L42.02,34.883L42.019,34.983L42.017,35.083L42.014,35.182L42.01,35.281L42.004,35.379L41.997,35.478L41.989,35.576L41.98,35.673L41.969,35.77L41.957,35.867L41.944,35.964L41.93,36.06L41.915,36.156L41.898,36.251L41.881,36.346L41.862,36.44L41.842,36.534L41.821,36.628L41.799,36.721L41.775,36.814L41.751,36.907L41.725,36.999L41.698,37.09L41.671,37.181L41.642,37.271L41.612,37.362L41.581,37.451L41.548,37.54L41.515,37.629L41.481,37.717L41.446,37.804L41.409,37.891L41.372,37.978L41.334,38.063L41.294,38.149L41.254,38.233L41.212,38.318L41.17,38.401L41.127,38.484L41.082,38.567L41.037,38.649L40.991,38.73L40.944,38.811L40.895,38.891L40.846,38.97L40.796,39.049L40.745,39.127L40.693,39.204L40.641,39.281L40.587,39.357L40.532,39.433L40.477,39.507L40.421,39.581L40.363,39.655L40.305,39.727L40.246,39.799L40.187,39.871L40.126,39.941L40.065,40.011L40.002,40.08L39.939,40.148L39.875,40.216L39.811,40.283L39.745,40.349L39.679,40.414L39.612,40.478L39.544,40.542L39.476,40.605L39.406,40.667L39.336,40.728L39.265,40.788L39.194,40.848L39.122,40.906L39.049,40.964L38.975,41.021L38.901,41.077L38.825,41.132L38.75,41.187L38.673,41.24L38.596,41.293L38.518,41.344L38.44,41.395L38.361,41.445L38.281,41.494L38.201,41.542L38.12,41.589L38.038,41.635L37.956,41.68L37.873,41.724L37.79,41.768L37.706,41.81L37.621,41.851L37.536,41.891L37.451,41.931L37.364,41.969L37.278,42.006L37.19,42.042L37.103,42.077L37.014,42.111L36.925,42.144L36.836,42.176L36.746,42.207L36.656,42.237L36.565,42.266L36.473,42.294L36.381,42.32L36.289,42.346L36.196,42.37L36.103,42.394L36.01,42.416L35.915,42.437L35.821,42.457L35.726,42.475L35.631,42.493L35.535,42.509L35.439,42.525L35.342,42.539L35.245,42.552L35.148,42.563L35.051,42.574L34.953,42.583L34.854,42.591L34.756,42.598L34.657,42.604L34.557,42.608L34.458,42.611L34.358,42.613L34.257,42.614L10.97,42.614L10.87,42.613L10.77,42.611L10.67,42.608L10.571,42.604L10.472,42.598L10.373,42.591L10.275,42.583L10.177,42.574L10.079,42.563L9.982,42.552L9.885,42.539L9.789,42.525L9.693,42.509L9.597,42.493L9.502,42.475L9.407,42.457L9.312,42.437L9.218,42.416L9.125,42.394L9.031,42.37L8.939,42.346L8.846,42.32L8.754,42.294L8.663,42.266L8.572,42.237L8.482,42.207L8.392,42.176L8.302,42.144L8.214,42.111L8.125,42.077L8.037,42.042L7.95,42.006L7.863,41.969L7.777,41.931L7.691,41.891L7.606,41.851L7.522,41.81L7.438,41.768L7.354,41.724L7.272,41.68L7.189,41.635L7.108,41.589L7.027,41.542L6.946,41.494L6.867,41.445L6.788,41.395L6.709,41.344L6.632,41.293L6.554,41.24L6.478,41.187L6.402,41.132L6.327,41.077L6.253,41.021L6.179,40.964L6.106,40.906L6.034,40.848L5.962,40.788L5.892,40.728L5.822,40.667L5.752,40.605L5.684,40.542L5.616,40.478L5.549,40.414L5.483,40.349L5.417,40.283L5.352,40.216L5.289,40.148L5.225,40.08L5.163,40.011L5.102,39.941L5.041,39.871L4.981,39.799L4.922,39.727L4.864,39.655L4.807,39.581L4.751,39.507L4.695,39.433L4.641,39.357L4.587,39.281L4.534,39.204L4.482,39.127L4.432,39.049L4.381,38.97L4.332,38.891L4.284,38.811L4.237,38.73L4.191,38.649L4.145,38.567L4.101,38.484L4.058,38.401L4.015,38.318L3.974,38.233L3.933,38.149L3.894,38.063L3.856,37.978L3.818,37.891L3.782,37.804L3.747,37.717L3.712,37.629L3.679,37.54L3.647,37.451L3.616,37.362L3.586,37.271L3.557,37.181L3.529,37.09L3.503,36.999L3.477,36.907L3.452,36.814L3.429,36.721L3.407,36.628L3.386,36.534L3.366,36.44L3.347,36.346L3.329,36.251L3.313,36.156L3.297,36.06L3.283,35.964L3.27,35.867L3.259,35.77L3.248,35.673L3.239,35.576L3.231,35.478L3.224,35.379L3.218,35.281L3.214,35.182L3.21,35.083L3.209,34.983L3.208,34.883L3.208,11.691L3.209,11.591L3.21,11.492L3.214,11.392L3.218,11.294L3.224,11.195L3.231,11.097L3.239,10.999L3.248,10.901L3.259,10.804L3.27,10.707L3.283,10.611L3.297,10.514L3.313,10.419L3.329,10.323L3.347,10.228L3.366,10.134L3.386,10.04L3.407,9.946L3.429,9.853L3.452,9.76L3.477,9.668L3.503,9.576L3.529,9.484L3.557,9.393L3.586,9.303L3.616,9.213L3.647,9.123L3.679,9.034L3.712,8.946L3.747,8.858L3.782,8.77L3.818,8.683L3.856,8.597L3.894,8.511L3.933,8.426L3.974,8.341L4.015,8.257L4.058,8.173L4.101,8.09L4.145,8.007L4.191,7.926L4.237,7.844L4.284,7.764L4.332,7.684L4.381,7.604L4.432,7.526L4.482,7.447L4.534,7.37L4.587,7.293L4.641,7.217L4.695,7.142L4.751,7.067L4.807,6.993L4.864,6.919L4.922,6.847L4.981,6.775L5.041,6.704L5.102,6.633L5.163,6.563L5.225,6.494L5.289,6.426L5.352,6.358L5.417,6.292L5.483,6.226L5.549,6.161L5.616,6.096L5.684,6.033L5.752,5.97L5.822,5.908L5.892,5.847L5.962,5.786L6.034,5.727L6.106,5.668L6.179,5.61L6.253,5.553L6.327,5.497L6.402,5.442L6.478,5.387L6.554,5.334L6.632,5.281L6.709,5.23L6.788,5.179L6.867,5.129L6.946,5.08L7.027,5.032L7.108,4.985L7.189,4.939L7.272,4.894L7.354,4.85L7.438,4.807L7.522,4.764L7.606,4.723L7.691,4.683L7.777,4.644L7.863,4.606L7.95,4.568L8.037,4.532L8.125,4.497L8.214,4.463L8.302,4.43L8.392,4.398L8.482,4.367L8.572,4.337L8.663,4.308L8.754,4.28L8.846,4.254L8.939,4.228L9.031,4.204L9.125,4.181L9.218,4.159L9.312,4.137L9.407,4.118L9.502,4.099L9.597,4.081L9.693,4.065L9.789,4.05L9.885,4.035L9.982,4.023L10.079,4.011L10.177,4L10.275,3.991L10.373,3.983L10.472,3.976L10.571,3.97L10.67,3.966L10.77,3.963L10.87,3.961L10.97,3.96L34.257,3.96L34.358,3.961ZM10.983,7.826L10.919,7.826L10.869,7.827L10.818,7.829L10.768,7.831L10.718,7.834L10.668,7.837L10.619,7.841L10.57,7.846L10.521,7.851L10.472,7.857L10.424,7.863L10.376,7.871L10.328,7.878L10.28,7.886L10.233,7.895L10.186,7.904L10.139,7.914L10.092,7.925L10.046,7.936L9.999,7.947L9.953,7.959L9.908,7.972L9.862,7.985L9.817,7.999L9.772,8.013L9.727,8.028L9.682,8.043L9.638,8.059L9.594,8.076L9.55,8.093L9.506,8.11L9.463,8.128L9.42,8.146L9.377,8.166L9.334,8.185L9.292,8.205L9.25,8.226L9.208,8.247L9.166,8.268L9.125,8.29L9.084,8.313L9.043,8.336L9.003,8.359L8.963,8.383L8.923,8.408L8.883,8.433L8.844,8.458L8.805,8.484L8.766,8.51L8.728,8.537L8.69,8.565L8.652,8.592L8.615,8.62L8.578,8.649L8.541,8.678L8.505,8.708L8.469,8.738L8.433,8.768L8.398,8.799L8.363,8.83L8.328,8.862L8.294,8.894L8.26,8.926L8.227,8.959L8.194,8.992L8.161,9.026L8.129,9.06L8.098,9.094L8.066,9.129L8.035,9.164L8.005,9.2L7.975,9.235L7.945,9.272L7.916,9.308L7.887,9.345L7.859,9.382L7.831,9.42L7.804,9.458L7.777,9.496L7.75,9.534L7.724,9.573L7.699,9.612L7.674,9.652L7.649,9.692L7.625,9.732L7.601,9.772L7.578,9.812L7.555,9.853L7.533,9.894L7.512,9.936L7.491,9.978L7.47,10.02L7.45,10.062L7.43,10.104L7.411,10.147L7.393,10.19L7.375,10.233L7.357,10.276L7.34,10.32L7.324,10.364L7.308,10.408L7.292,10.453L7.277,10.497L7.263,10.542L7.249,10.587L7.236,10.633L7.223,10.678L7.211,10.724L7.199,10.77L7.188,10.816L7.178,10.863L7.168,10.91L7.159,10.957L7.15,11.004L7.142,11.051L7.134,11.099L7.127,11.147L7.121,11.195L7.115,11.243L7.109,11.292L7.105,11.341L7.101,11.39L7.097,11.44L7.094,11.489L7.092,11.539L7.09,11.59L7.09,11.64L7.089,11.703L7.089,34.871L7.09,34.934L7.09,34.985L7.092,35.035L7.094,35.085L7.097,35.135L7.101,35.184L7.105,35.233L7.109,35.282L7.115,35.331L7.121,35.379L7.127,35.427L7.134,35.475L7.142,35.523L7.15,35.57L7.159,35.618L7.168,35.665L7.178,35.711L7.188,35.758L7.199,35.804L7.211,35.85L7.223,35.896L7.236,35.942L7.249,35.987L7.263,36.032L7.277,36.077L7.292,36.122L7.308,36.166L7.324,36.21L7.34,36.254L7.357,36.298L7.375,36.341L7.393,36.384L7.411,36.427L7.43,36.47L7.45,36.513L7.47,36.555L7.491,36.597L7.512,36.638L7.533,36.68L7.555,36.721L7.578,36.762L7.601,36.802L7.625,36.843L7.649,36.883L7.674,36.922L7.699,36.962L7.724,37.001L7.75,37.04L7.777,37.078L7.804,37.117L7.831,37.154L7.859,37.192L7.887,37.229L7.916,37.266L7.945,37.303L7.975,37.339L8.005,37.375L8.035,37.41L8.066,37.445L8.098,37.48L8.129,37.514L8.161,37.548L8.194,37.582L8.227,37.615L8.26,37.648L8.294,37.681L8.328,37.713L8.363,37.744L8.398,37.775L8.433,37.806L8.469,37.837L8.505,37.867L8.541,37.896L8.578,37.925L8.615,37.954L8.652,37.982L8.69,38.01L8.728,38.037L8.766,38.064L8.805,38.09L8.844,38.116L8.883,38.142L8.923,38.166L8.963,38.191L9.003,38.215L9.043,38.238L9.084,38.261L9.125,38.284L9.166,38.306L9.208,38.328L9.25,38.349L9.292,38.369L9.334,38.389L9.377,38.409L9.42,38.428L9.463,38.446L9.506,38.464L9.55,38.482L9.594,38.499L9.638,38.515L9.682,38.531L9.727,38.546L9.772,38.561L9.817,38.575L9.862,38.589L9.908,38.602L9.953,38.615L9.999,38.627L10.046,38.639L10.092,38.65L10.139,38.66L10.186,38.67L10.233,38.679L10.28,38.688L10.328,38.696L10.376,38.704L10.424,38.711L10.472,38.717L10.521,38.723L10.57,38.728L10.619,38.733L10.668,38.737L10.718,38.74L10.768,38.743L10.818,38.746L10.869,38.747L10.919,38.748L10.983,38.749L34.245,38.749L34.309,38.748L34.359,38.747L34.41,38.746L34.46,38.743L34.51,38.74L34.559,38.737L34.609,38.733L34.658,38.728L34.707,38.723L34.755,38.717L34.804,38.711L34.852,38.704L34.9,38.696L34.948,38.688L34.995,38.679L35.042,38.67L35.089,38.66L35.136,38.65L35.182,38.639L35.228,38.627L35.274,38.615L35.32,38.602L35.366,38.589L35.411,38.575L35.456,38.561L35.501,38.546L35.545,38.531L35.59,38.515L35.634,38.499L35.678,38.482L35.721,38.464L35.765,38.446L35.808,38.428L35.851,38.409L35.893,38.389L35.936,38.369L35.978,38.349L36.02,38.328L36.061,38.306L36.103,38.284L36.144,38.261L36.185,38.238L36.225,38.215L36.265,38.191L36.305,38.166L36.345,38.142L36.384,38.116L36.423,38.09L36.462,38.064L36.5,38.037L36.538,38.01L36.576,37.982L36.613,37.954L36.65,37.925L36.687,37.896L36.723,37.867L36.759,37.837L36.795,37.806L36.83,37.775L36.865,37.744L36.899,37.713L36.934,37.681L36.967,37.648L37.001,37.615L37.034,37.582L37.066,37.548L37.098,37.514L37.13,37.48L37.162,37.445L37.192,37.41L37.223,37.375L37.253,37.339L37.283,37.303L37.312,37.266L37.341,37.229L37.369,37.192L37.397,37.154L37.424,37.117L37.451,37.078L37.478,37.04L37.504,37.001L37.529,36.962L37.554,36.922L37.579,36.883L37.603,36.843L37.626,36.802L37.65,36.762L37.672,36.721L37.694,36.68L37.716,36.638L37.737,36.597L37.758,36.555L37.778,36.513L37.797,36.47L37.817,36.427L37.835,36.384L37.853,36.341L37.871,36.298L37.888,36.254L37.904,36.21L37.92,36.166L37.936,36.122L37.95,36.077L37.965,36.032L37.979,35.987L37.992,35.942L38.004,35.896L38.017,35.85L38.028,35.804L38.039,35.758L38.05,35.711L38.06,35.665L38.069,35.618L38.078,35.57L38.086,35.523L38.094,35.475L38.101,35.427L38.107,35.379L38.113,35.331L38.118,35.282L38.123,35.233L38.127,35.184L38.131,35.134L38.133,35.085L38.136,35.035L38.137,34.985L38.138,34.934L38.139,34.871L38.139,11.703L38.138,11.64L38.137,11.59L38.136,11.539L38.133,11.489L38.131,11.44L38.127,11.39L38.123,11.341L38.118,11.292L38.113,11.243L38.107,11.195L38.101,11.147L38.094,11.099L38.086,11.051L38.078,11.004L38.069,10.957L38.06,10.91L38.05,10.863L38.039,10.816L38.028,10.77L38.017,10.724L38.004,10.678L37.992,10.633L37.979,10.587L37.965,10.542L37.95,10.497L37.936,10.453L37.92,10.408L37.904,10.364L37.888,10.32L37.871,10.276L37.853,10.233L37.835,10.19L37.817,10.147L37.797,10.104L37.778,10.062L37.758,10.02L37.737,9.978L37.716,9.936L37.694,9.894L37.672,9.853L37.65,9.812L37.627,9.772L37.603,9.732L37.579,9.692L37.554,9.652L37.529,9.612L37.504,9.573L37.478,9.534L37.451,9.496L37.424,9.458L37.397,9.42L37.369,9.382L37.341,9.345L37.312,9.308L37.283,9.272L37.253,9.235L37.223,9.2L37.192,9.164L37.162,9.129L37.13,9.094L37.098,9.06L37.066,9.026L37.034,8.992L37.001,8.959L36.967,8.926L36.934,8.894L36.899,8.862L36.865,8.83L36.83,8.799L36.795,8.768L36.759,8.738L36.723,8.708L36.687,8.678L36.65,8.649L36.613,8.62L36.576,8.592L36.538,8.565L36.5,8.537L36.462,8.51L36.423,8.484L36.384,8.458L36.345,8.433L36.305,8.408L36.265,8.383L36.225,8.359L36.184,8.336L36.144,8.313L36.103,8.29L36.061,8.268L36.02,8.247L35.978,8.226L35.936,8.205L35.893,8.185L35.851,8.166L35.808,8.146L35.765,8.128L35.721,8.11L35.678,8.093L35.634,8.076L35.59,8.059L35.545,8.043L35.501,8.028L35.456,8.013L35.411,7.999L35.366,7.985L35.32,7.972L35.274,7.959L35.228,7.947L35.182,7.936L35.136,7.925L35.089,7.914L35.042,7.904L34.995,7.895L34.948,7.886L34.9,7.878L34.852,7.871L34.804,7.863L34.755,7.857L34.707,7.851L34.658,7.846L34.609,7.841L34.559,7.837L34.51,7.834L34.46,7.831L34.41,7.829L34.359,7.827L34.308,7.826L34.245,7.826L10.983,7.826Z" style="fill-opacity:0.5;"/>
    </g>
    <g transform="matrix(30,0,0,30,13.2669,34.8398)">
        <path d="M0.317,-0.823L0.339,-0.822L0.36,-0.821L0.381,-0.818L0.402,-0.815L0.422,-0.811L0.438,-0.807L0.453,-0.802L0.469,-0.796L0.484,-0.789L0.498,-0.781L0.512,-0.772L0.526,-0.762L0.535,-0.754L0.545,-0.746L0.553,-0.736L0.564,-0.723L0.572,-0.713L0.579,-0.702L0.586,-0.691L0.593,-0.68L0.598,-0.668L0.604,-0.657L0.609,-0.645L0.613,-0.632L0.616,-0.62L0.619,-0.608L0.622,-0.595L0.624,-0.582L0.625,-0.569L0.626,-0.556L0.626,-0.544L0.626,-0.54L0.626,-0.536L0.626,-0.532L0.626,-0.528L0.626,-0.524L0.626,-0.521L0.625,-0.517L0.625,-0.513L0.624,-0.509L0.624,-0.505L0.623,-0.502L0.623,-0.498L0.622,-0.494L0.622,-0.49L0.621,-0.487L0.62,-0.483L0.62,-0.479L0.619,-0.475L0.618,-0.472L0.617,-0.468L0.616,-0.464L0.615,-0.461L0.614,-0.457L0.613,-0.453L0.612,-0.45L0.611,-0.446L0.609,-0.442L0.608,-0.439L0.607,-0.435L0.605,-0.432L0.604,-0.428L0.603,-0.425L0.601,-0.421L0.6,-0.417L0.598,-0.414L0.596,-0.41L0.595,-0.407L0.593,-0.403L0.591,-0.4L0.59,-0.397L0.588,-0.393L0.586,-0.39L0.584,-0.386L0.582,-0.383L0.58,-0.38L0.578,-0.376L0.576,-0.373L0.574,-0.37L0.572,-0.367L0.57,-0.363L0.567,-0.36L0.565,-0.357L0.563,-0.354L0.56,-0.351L0.558,-0.348L0.556,-0.345L0.553,-0.342L0.551,-0.339L0.548,-0.336L0.546,-0.333L0.543,-0.33L0.541,-0.327L0.538,-0.324L0.535,-0.321L0.532,-0.318L0.529,-0.315L0.526,-0.312L0.524,-0.31L0.704,-0.058L0.709,-0.049L0.714,-0.039L0.718,-0.029L0.72,-0.019L0.722,-0.009L0.722,0.002L0.722,0.007L0.721,0.013L0.721,0.018L0.72,0.023L0.718,0.028L0.716,0.034L0.715,0.039L0.712,0.043L0.71,0.048L0.707,0.053L0.704,0.057L0.701,0.062L0.698,0.066L0.694,0.07L0.69,0.073L0.686,0.077L0.682,0.08L0.678,0.083L0.673,0.086L0.669,0.089L0.664,0.091L0.659,0.093L0.654,0.095L0.649,0.096L0.643,0.098L0.638,0.099L0.633,0.099L0.628,0.1L0.622,0.1L0.496,0.1L0.491,0.1L0.486,0.099L0.481,0.099L0.476,0.098L0.471,0.097L0.466,0.095L0.461,0.094L0.456,0.092L0.452,0.089L0.447,0.087L0.443,0.084L0.438,0.082L0.434,0.078L0.43,0.075L0.427,0.072L0.423,0.068L0.42,0.064L0.416,0.06L0.413,0.056L0.295,-0.12L0.295,0L0.295,0.005L0.294,0.01L0.294,0.016L0.293,0.021L0.291,0.026L0.29,0.031L0.288,0.036L0.286,0.041L0.284,0.045L0.281,0.05L0.279,0.054L0.276,0.059L0.273,0.063L0.269,0.067L0.266,0.071L0.262,0.074L0.258,0.078L0.254,0.081L0.249,0.084L0.245,0.087L0.24,0.089L0.235,0.091L0.231,0.093L0.226,0.095L0.221,0.097L0.216,0.098L0.21,0.099L0.205,0.099L0.2,0.1L0.195,0.1L0.093,0.1L0.088,0.1L0.083,0.099L0.078,0.099L0.072,0.098L0.067,0.097L0.062,0.095L0.057,0.093L0.053,0.091L0.048,0.089L0.043,0.087L0.039,0.084L0.034,0.081L0.03,0.078L0.026,0.074L0.023,0.071L0.019,0.067L0.016,0.063L0.012,0.059L0.009,0.054L0.007,0.05L0.004,0.045L0.002,0.041L0,0.036L-0.002,0.031L-0.003,0.026L-0.005,0.021L-0.006,0.016L-0.006,0.01L-0.007,0.005L-0.007,0L-0.007,-0.723L-0.007,-0.728L-0.006,-0.733L-0.006,-0.738L-0.005,-0.743L-0.003,-0.749L-0.002,-0.754L0,-0.758L0.002,-0.763L0.004,-0.768L0.007,-0.773L0.009,-0.777L0.012,-0.781L0.016,-0.786L0.019,-0.79L0.023,-0.793L0.026,-0.797L0.03,-0.8L0.034,-0.804L0.039,-0.807L0.043,-0.809L0.048,-0.812L0.053,-0.814L0.057,-0.816L0.062,-0.818L0.067,-0.819L0.072,-0.82L0.078,-0.821L0.083,-0.822L0.088,-0.823L0.093,-0.823L0.312,-0.823L0.317,-0.823ZM0.093,-0.723L0.093,0L0.195,0L0.195,-0.306L0.291,-0.306L0.496,0L0.622,0L0.381,-0.338L0.384,-0.34L0.387,-0.341L0.39,-0.343L0.394,-0.344L0.397,-0.345L0.4,-0.347L0.403,-0.348L0.406,-0.35L0.409,-0.351L0.411,-0.353L0.414,-0.354L0.417,-0.356L0.42,-0.357L0.422,-0.359L0.425,-0.361L0.428,-0.362L0.43,-0.364L0.433,-0.366L0.435,-0.367L0.438,-0.369L0.44,-0.371L0.442,-0.373L0.445,-0.374L0.447,-0.376L0.449,-0.378L0.451,-0.38L0.453,-0.382L0.455,-0.383L0.458,-0.385L0.46,-0.387L0.461,-0.389L0.463,-0.391L0.465,-0.393L0.467,-0.395L0.469,-0.397L0.471,-0.399L0.473,-0.401L0.474,-0.403L0.476,-0.405L0.478,-0.407L0.479,-0.409L0.481,-0.412L0.483,-0.414L0.484,-0.416L0.486,-0.418L0.487,-0.42L0.489,-0.422L0.49,-0.425L0.492,-0.427L0.493,-0.429L0.494,-0.431L0.496,-0.434L0.497,-0.436L0.498,-0.438L0.5,-0.441L0.501,-0.443L0.502,-0.445L0.503,-0.448L0.505,-0.45L0.506,-0.453L0.507,-0.455L0.508,-0.457L0.509,-0.46L0.51,-0.462L0.511,-0.465L0.512,-0.467L0.513,-0.47L0.514,-0.472L0.515,-0.475L0.516,-0.477L0.516,-0.48L0.517,-0.482L0.518,-0.485L0.519,-0.488L0.519,-0.49L0.52,-0.493L0.521,-0.495L0.521,-0.498L0.522,-0.5L0.522,-0.503L0.523,-0.505L0.523,-0.508L0.524,-0.51L0.524,-0.513L0.524,-0.515L0.525,-0.518L0.525,-0.52L0.525,-0.523L0.526,-0.526L0.526,-0.528L0.526,-0.531L0.526,-0.533L0.526,-0.536L0.526,-0.538L0.526,-0.541L0.526,-0.543L0.526,-0.548L0.526,-0.552L0.526,-0.557L0.526,-0.561L0.525,-0.565L0.525,-0.569L0.524,-0.573L0.523,-0.578L0.523,-0.582L0.522,-0.586L0.521,-0.59L0.52,-0.594L0.519,-0.598L0.517,-0.602L0.516,-0.606L0.515,-0.61L0.513,-0.614L0.512,-0.618L0.51,-0.621L0.508,-0.625L0.506,-0.629L0.504,-0.633L0.502,-0.636L0.5,-0.64L0.498,-0.644L0.496,-0.647L0.493,-0.651L0.491,-0.654L0.488,-0.658L0.486,-0.661L0.483,-0.665L0.48,-0.668L0.479,-0.67L0.477,-0.672L0.475,-0.673L0.474,-0.675L0.472,-0.676L0.471,-0.678L0.469,-0.679L0.467,-0.681L0.465,-0.682L0.464,-0.684L0.462,-0.685L0.46,-0.687L0.458,-0.688L0.456,-0.689L0.454,-0.691L0.452,-0.692L0.45,-0.693L0.448,-0.695L0.446,-0.696L0.444,-0.697L0.441,-0.698L0.439,-0.699L0.437,-0.7L0.435,-0.701L0.432,-0.702L0.43,-0.703L0.427,-0.704L0.425,-0.705L0.423,-0.706L0.42,-0.707L0.417,-0.708L0.415,-0.709L0.412,-0.71L0.409,-0.711L0.407,-0.711L0.404,-0.712L0.401,-0.713L0.398,-0.714L0.396,-0.714L0.393,-0.715L0.39,-0.716L0.387,-0.716L0.384,-0.717L0.381,-0.717L0.378,-0.718L0.374,-0.718L0.371,-0.719L0.368,-0.719L0.365,-0.72L0.362,-0.72L0.358,-0.72L0.355,-0.721L0.352,-0.721L0.348,-0.721L0.345,-0.722L0.341,-0.722L0.338,-0.722L0.334,-0.722L0.331,-0.722L0.327,-0.722L0.323,-0.723L0.32,-0.723L0.316,-0.723L0.312,-0.723L0.093,-0.723ZM0.264,-0.646L0.288,-0.645L0.309,-0.644L0.328,-0.641L0.345,-0.637L0.358,-0.633L0.371,-0.626L0.384,-0.617L0.396,-0.607L0.405,-0.596L0.412,-0.583L0.417,-0.569L0.42,-0.554L0.421,-0.538L0.421,-0.534L0.421,-0.53L0.421,-0.527L0.421,-0.523L0.421,-0.52L0.42,-0.516L0.42,-0.513L0.419,-0.509L0.419,-0.506L0.418,-0.503L0.418,-0.499L0.417,-0.496L0.416,-0.493L0.415,-0.489L0.414,-0.486L0.413,-0.483L0.411,-0.479L0.41,-0.476L0.409,-0.473L0.407,-0.47L0.406,-0.467L0.404,-0.463L0.403,-0.46L0.401,-0.457L0.399,-0.454L0.397,-0.451L0.395,-0.448L0.393,-0.445L0.391,-0.442L0.389,-0.439L0.386,-0.436L0.384,-0.433L0.382,-0.43L0.38,-0.428L0.379,-0.427L0.378,-0.425L0.376,-0.424L0.375,-0.423L0.373,-0.421L0.372,-0.42L0.37,-0.419L0.369,-0.417L0.367,-0.416L0.366,-0.415L0.364,-0.414L0.362,-0.412L0.361,-0.411L0.359,-0.41L0.357,-0.409L0.355,-0.408L0.353,-0.407L0.351,-0.406L0.35,-0.405L0.348,-0.404L0.345,-0.403L0.343,-0.402L0.341,-0.401L0.339,-0.4L0.337,-0.399L0.335,-0.398L0.333,-0.397L0.33,-0.396L0.328,-0.396L0.326,-0.395L0.323,-0.394L0.321,-0.393L0.318,-0.393L0.316,-0.392L0.313,-0.391L0.311,-0.391L0.308,-0.39L0.306,-0.39L0.303,-0.389L0.3,-0.388L0.298,-0.388L0.295,-0.387L0.292,-0.387L0.289,-0.386L0.286,-0.386L0.283,-0.386L0.28,-0.385L0.277,-0.385L0.274,-0.385L0.271,-0.384L0.268,-0.384L0.265,-0.384L0.262,-0.383L0.259,-0.383L0.255,-0.383L0.249,-0.383L0.242,-0.383L0.235,-0.382L0.228,-0.382L0.195,-0.382L0.195,-0.646L0.264,-0.646ZM0.295,-0.49L0.295,-0.49L0.296,-0.49L0.297,-0.491L0.298,-0.491L0.299,-0.491L0.3,-0.492L0.3,-0.492L0.301,-0.492L0.302,-0.493L0.302,-0.493L0.303,-0.493L0.304,-0.494L0.304,-0.494L0.304,-0.494L0.305,-0.494L0.305,-0.494L0.305,-0.495L0.305,-0.495L0.306,-0.495L0.306,-0.496L0.307,-0.497L0.309,-0.499L0.31,-0.5L0.311,-0.501L0.312,-0.503L0.312,-0.504L0.313,-0.505L0.314,-0.507L0.315,-0.508L0.315,-0.509L0.316,-0.51L0.317,-0.512L0.317,-0.513L0.318,-0.514L0.318,-0.515L0.318,-0.516L0.319,-0.517L0.319,-0.518L0.32,-0.52L0.32,-0.521L0.32,-0.522L0.32,-0.523L0.321,-0.524L0.321,-0.525L0.321,-0.526L0.321,-0.527L0.321,-0.529L0.321,-0.53L0.321,-0.531L0.321,-0.532L0.321,-0.534L0.321,-0.534L0.321,-0.535L0.321,-0.536L0.321,-0.536L0.321,-0.537L0.321,-0.537L0.321,-0.538L0.321,-0.538L0.321,-0.539L0.321,-0.539L0.321,-0.539L0.321,-0.54L0.321,-0.54L0.321,-0.54L0.32,-0.54L0.32,-0.54L0.319,-0.54L0.319,-0.541L0.319,-0.541L0.318,-0.541L0.318,-0.541L0.317,-0.541L0.316,-0.541L0.315,-0.542L0.314,-0.542L0.312,-0.542L0.311,-0.543L0.309,-0.543L0.307,-0.543L0.305,-0.543L0.303,-0.544L0.301,-0.544L0.299,-0.544L0.296,-0.544L0.295,-0.545L0.295,-0.49Z" style="fill-opacity:0.5;"/>
    </g>
</svg>
